<svg width="50" height="50" viewBox="0 0 50 50" fill="none" xmlns="http://www.w3.org/2000/svg">
<path d="M32.0833 14.5833H43.5417L32.0833 3.125V14.5833ZM17.5 0H34.1667L46.6667 12.5V37.5C46.6667 38.6051 46.2277 39.6649 45.4463 40.4463C44.6649 41.2277 43.6051 41.6667 42.5 41.6667H17.5C16.3949 41.6667 15.3351 41.2277 14.5537 40.4463C13.7723 39.6649 13.3333 38.6051 13.3333 37.5V4.16667C13.3333 3.0616 13.7723 2.00179 14.5537 1.22039C15.3351 0.438987 16.3949 0 17.5 0ZM9.16667 8.33333V45.8333H42.5V50H9.16667C8.0616 50 7.00179 49.561 6.22039 48.7796C5.43899 47.9982 5 46.9384 5 45.8333V8.33333H9.16667Z" fill="#2B2B2B"/>
</svg>
