<svg width="24" height="24" viewBox="0 0 24 24" fill="none" xmlns="http://www.w3.org/2000/svg">
<path d="M20.749 12L21.853 10.092C21.9857 9.86244 22.0218 9.58958 21.9533 9.33343C21.8849 9.07727 21.7175 8.85878 21.488 8.726L19.578 7.622V5.422C19.578 5.15678 19.4726 4.90243 19.2851 4.71489C19.0976 4.52735 18.8432 4.422 18.578 4.422H16.379L15.276 2.513C15.1428 2.28391 14.9247 2.1165 14.669 2.047C14.5422 2.01261 14.4098 2.00375 14.2795 2.02091C14.1492 2.03808 14.0236 2.08093 13.91 2.147L12 3.251L10.09 2.146C9.86032 2.01339 9.58737 1.97746 9.3312 2.0461C9.07503 2.11474 8.85661 2.28232 8.724 2.512L7.62 4.422H5.421C5.15578 4.422 4.90143 4.52735 4.71389 4.71489C4.52636 4.90243 4.421 5.15678 4.421 5.422V7.621L2.511 8.725C2.39703 8.79055 2.29714 8.87798 2.21706 8.98226C2.13699 9.08654 2.07831 9.20561 2.04439 9.33264C2.01047 9.45966 2.00199 9.59214 2.01943 9.72246C2.03686 9.85277 2.07988 9.97836 2.146 10.092L3.25 12L2.146 13.908C2.01399 14.1378 1.97817 14.4104 2.04636 14.6665C2.11454 14.9226 2.2812 15.1413 2.51 15.275L4.42 16.379V18.578C4.42 18.8432 4.52536 19.0976 4.71289 19.2851C4.90043 19.4726 5.15478 19.578 5.42 19.578H7.62L8.724 21.488C8.81253 21.6393 8.93894 21.765 9.09078 21.8527C9.24262 21.9404 9.41467 21.987 9.59 21.988C9.764 21.988 9.937 21.942 10.091 21.853L11.999 20.749L13.909 21.853C14.1386 21.9854 14.4114 22.0213 14.6675 21.9529C14.9235 21.8845 15.142 21.7173 15.275 21.488L16.378 19.578H18.577C18.8422 19.578 19.0966 19.4726 19.2841 19.2851C19.4716 19.0976 19.577 18.8432 19.577 18.578V16.379L21.487 15.275C21.6008 15.2092 21.7005 15.1217 21.7804 15.0174C21.8603 14.9131 21.9189 14.7941 21.9528 14.6671C21.9867 14.5402 21.9953 14.4078 21.978 14.2775C21.9607 14.1473 21.9179 14.0217 21.852 13.908L20.749 12ZM9.499 6.99C9.89696 6.99013 10.2786 7.14834 10.5599 7.42984C10.8412 7.71133 10.9991 8.09304 10.999 8.491C10.9989 8.88895 10.8407 9.27056 10.5592 9.55186C10.2777 9.83317 9.89596 9.99113 9.498 9.991C9.10004 9.99086 8.71844 9.83265 8.43713 9.55116C8.15583 9.26966 7.99787 8.88795 7.998 8.49C7.99813 8.09204 8.15635 7.71043 8.43784 7.42913C8.71933 7.14783 9.10104 6.98986 9.499 6.99ZM9.799 16.59L8.199 15.391L14.199 7.391L15.799 8.59L9.799 16.59ZM14.499 16.99C14.302 16.9899 14.1068 16.9511 13.9248 16.8756C13.7428 16.8001 13.5774 16.6895 13.4381 16.5502C13.2988 16.4108 13.1884 16.2453 13.113 16.0633C13.0377 15.8812 12.9989 15.686 12.999 15.489C12.9991 15.2919 13.0379 15.0968 13.1134 14.9148C13.1889 14.7328 13.2995 14.5674 13.4388 14.4281C13.5782 14.2888 13.7437 14.1784 13.9257 14.103C14.1078 14.0277 14.303 13.9889 14.5 13.989C14.898 13.9891 15.2796 14.1473 15.5609 14.4288C15.8422 14.7103 16.0001 15.092 16 15.49C15.9999 15.888 15.8417 16.2696 15.5602 16.5509C15.2787 16.8322 14.897 16.9901 14.499 16.99Z" fill="#424242"/>
</svg>
