<svg width="16" height="16" viewBox="0 0 16 16" fill="none" xmlns="http://www.w3.org/2000/svg">
<path d="M4.47915 6.88018C4.98253 6.88018 5.3906 7.28825 5.3906 7.79164C5.3906 8.29502 4.98253 8.7031 4.47915 8.7031C3.97576 8.7031 3.56769 8.29502 3.56769 7.79164C3.56769 7.28825 3.97576 6.88018 4.47915 6.88018Z" fill="#1C1C1C"/>
<path d="M8.12498 6.88018C8.62836 6.88018 9.03644 7.28825 9.03644 7.79164C9.03644 8.29502 8.62836 8.7031 8.12498 8.7031C7.6216 8.7031 7.21352 8.29502 7.21352 7.79164C7.21352 7.28825 7.6216 6.88018 8.12498 6.88018Z" fill="#1C1C1C"/>
<path d="M12.6823 7.79164C12.6823 7.28825 12.2742 6.88018 11.7708 6.88018C11.2674 6.88018 10.8594 7.28825 10.8594 7.79164C10.8594 8.29502 11.2674 8.7031 11.7708 8.7031C12.2742 8.7031 12.6823 8.29502 12.6823 7.79164Z" fill="#1C1C1C"/>
</svg>
