<svg width="24" height="24" viewBox="0 0 24 24" fill="none" xmlns="http://www.w3.org/2000/svg">
<path d="M15.93 11.457L7.57049 3.49199C7.43101 3.35903 7.2457 3.28485 7.05299 3.28485C6.86029 3.28485 6.67498 3.35903 6.53549 3.49199L6.52649 3.50099C6.45864 3.56545 6.40461 3.64304 6.36769 3.72904C6.33077 3.81504 6.31173 3.90765 6.31173 4.00124C6.31173 4.09483 6.33077 4.18745 6.36769 4.27344C6.40461 4.35944 6.45864 4.43703 6.52649 4.50149L14.3985 12.0015L6.52649 19.4985C6.45864 19.563 6.40461 19.6405 6.36769 19.7265C6.33077 19.8125 6.31173 19.9052 6.31173 19.9987C6.31173 20.0923 6.33077 20.1849 6.36769 20.2709C6.40461 20.3569 6.45864 20.4345 6.52649 20.499L6.53549 20.508C6.67498 20.641 6.86029 20.7151 7.05299 20.7151C7.2457 20.7151 7.43101 20.641 7.57049 20.508L15.93 12.543C16.0035 12.4729 16.062 12.3887 16.102 12.2954C16.142 12.202 16.1626 12.1015 16.1626 12C16.1626 11.8984 16.142 11.798 16.102 11.7046C16.062 11.6113 16.0035 11.527 15.93 11.457Z" fill="black"/>
</svg>
