<svg width="24" height="24" viewBox="0 0 24 24" fill="none" xmlns="http://www.w3.org/2000/svg">
<path d="M6 1.5C5.40326 1.5 4.83097 1.73705 4.40901 2.15901C3.98705 2.58097 3.75 3.15326 3.75 3.75V20.25C3.75 20.8467 3.98705 21.419 4.40901 21.841C4.83097 22.2629 5.40326 22.5 6 22.5H18C18.5967 22.5 19.169 22.2629 19.591 21.841C20.0129 21.419 20.25 20.8467 20.25 20.25V8.121C20.2497 7.52457 20.0126 6.95267 19.5907 6.531L15.2197 2.1585C14.7978 1.73679 14.2256 1.49993 13.629 1.5H6ZM5.25 3.75C5.25 3.55109 5.32902 3.36032 5.46967 3.21967C5.61032 3.07902 5.80109 3 6 3H12.75V6.75C12.75 7.34674 12.9871 7.91903 13.409 8.34099C13.831 8.76295 14.4033 9 15 9H18.75V20.25C18.75 20.4489 18.671 20.6397 18.5303 20.7803C18.3897 20.921 18.1989 21 18 21H6C5.80109 21 5.61032 20.921 5.46967 20.7803C5.32902 20.6397 5.25 20.4489 5.25 20.25V3.75ZM18.4395 7.5H15C14.8011 7.5 14.6103 7.42098 14.4697 7.28033C14.329 7.13968 14.25 6.94891 14.25 6.75V3.3105L18.4395 7.5Z" fill="#424242"/>
</svg>
