<svg width="92" height="93" viewBox="0 0 92 93" fill="none" xmlns="http://www.w3.org/2000/svg">
<path d="M79.1041 16.8321C75.8731 13.2385 70.3407 12.9447 66.7472 16.1757C63.1536 19.4067 62.8598 24.9391 66.0908 28.5326C70.3925 33.317 72.9997 39.6248 72.9997 46.5624C72.9997 61.4625 60.9208 73.5415 46.0207 73.5415C31.1206 73.5415 19.0417 61.4625 19.0417 46.5624C19.0417 45.0528 19.1648 43.5784 19.3999 42.147C20.1829 37.3784 16.952 32.8779 12.1834 32.0948C7.41476 31.3117 2.91422 34.5426 2.13114 39.3113C1.74276 41.6764 1.54167 44.0991 1.54167 46.5624C1.54167 71.1275 21.4556 91.0415 46.0207 91.0415C70.5857 91.0415 90.4997 71.1275 90.4997 46.5624C90.4997 35.1394 86.1821 24.7042 79.1041 16.8321Z" fill="#094CD2" stroke="#F7F9FB" stroke-width="2.91667" stroke-linecap="round" stroke-linejoin="round"/>
<path d="M25.869 28.5326C29.1 24.9391 28.8061 19.4067 25.2126 16.1757C21.6191 12.9447 16.0867 13.2385 12.8556 16.8321C9.45972 20.609 6.6975 24.9763 4.74267 29.7673C2.91704 34.2417 5.06427 39.3489 9.53865 41.1745C14.013 43.0001 19.1202 40.8529 20.9458 36.3785C22.1273 33.4828 23.8016 30.832 25.869 28.5326Z" fill="#D9D9D9" stroke="#F7F9FB" stroke-width="2.91667" stroke-linecap="round" stroke-linejoin="round"/>
<path d="M18.2473 22.2433L19.4374 21.4132L18.2473 22.2433C21.012 26.2068 26.4663 27.1787 30.4298 24.4141C34.7962 21.3684 40.0968 19.5833 45.8405 19.5833C51.5843 19.5833 56.8849 21.3684 61.2513 24.4141C65.2148 27.1787 70.6691 26.2068 73.4337 22.2433C76.1984 18.2798 75.2265 12.8255 71.263 10.0608C64.055 5.03308 55.2792 2.08332 45.8405 2.08332C36.4019 2.08332 27.6261 5.03308 20.4181 10.0608C16.4546 12.8255 15.4827 18.2798 18.2473 22.2433Z" fill="#5C5C5C" stroke="#F7F9FB" stroke-width="2.91667" stroke-linecap="round" stroke-linejoin="round"/>
<path d="M79.1043 16.8321C75.8733 13.2385 70.3409 12.9447 66.7473 16.1757C63.1538 19.4067 62.8599 24.9391 66.091 28.5326C70.3927 33.317 72.9999 39.6248 72.9999 46.5624C72.9999 61.4625 60.9209 73.5415 46.0209 73.5415C41.1884 73.5415 37.2709 77.459 37.2709 82.2915C37.2709 87.1239 41.1884 91.0415 46.0209 91.0415C70.5859 91.0415 90.4999 71.1275 90.4999 46.5624C90.4999 35.1394 86.1823 24.7042 79.1043 16.8321Z" fill="#43ECE2" stroke="#F7F9FB" stroke-width="2.91667" stroke-linecap="round" stroke-linejoin="round"/>
<path d="M46.0209 82.1332C49.3028 82.1332 52.4813 81.6907 55.5 80.8622" stroke="#F7F9FB" stroke-width="20.4167" stroke-linecap="round" stroke-linejoin="round"/>
<path d="M25.6043 75.7291C31.3916 79.7658 38.4298 82.1332 46.0209 82.1332C49.3028 82.1332 52.4813 81.6907 55.5 80.8622" stroke="#EEA517" stroke-width="14.5833" stroke-linecap="round" stroke-linejoin="round"/>
</svg>
