<svg width="24" height="24" viewBox="0 0 24 24" fill="none" xmlns="http://www.w3.org/2000/svg">
<path d="M8.928 3.64082L8.6928 4.85642C8.64648 5.0954 8.54939 5.32166 8.40809 5.51989C8.26679 5.71811 8.08457 5.88369 7.87376 6.00542C7.66295 6.12715 7.42846 6.2022 7.18615 6.22549C6.94383 6.24878 6.69934 6.21977 6.4692 6.14042L5.2968 5.73482C5.02371 6.09384 4.79674 6.4857 4.6212 6.90122L5.5596 7.71602C6.3396 8.39402 6.3396 9.60602 5.5596 10.284L4.6212 11.0988C4.7976 11.5164 5.0256 11.9076 5.2968 12.264L6.4692 11.8596C6.69934 11.7803 6.94383 11.7513 7.18615 11.7745C7.42846 11.7978 7.66295 11.8729 7.87376 11.9946C8.08457 12.1163 8.26679 12.2819 8.40809 12.4802C8.54939 12.6784 8.64648 12.9046 8.6928 13.1436L8.9292 14.3592C9.37712 14.4146 9.83018 14.4142 10.278 14.358L10.5132 13.1436C10.5595 12.9046 10.6566 12.6784 10.7979 12.4802C10.9392 12.2819 11.1214 12.1163 11.3322 11.9946C11.543 11.8729 11.7775 11.7978 12.0199 11.7745C12.2622 11.7513 12.5067 11.7803 12.7368 11.8596L13.902 12.2616C14.1744 11.904 14.4024 11.5116 14.5788 11.0916L13.6476 10.284C13.4637 10.1244 13.3163 9.92716 13.2153 9.70564C13.1143 9.48412 13.062 9.24349 13.062 9.00002C13.062 8.75655 13.1143 8.51591 13.2153 8.29439C13.3163 8.07288 13.4637 7.87564 13.6476 7.71602L14.5788 6.90722C14.4032 6.49037 14.1758 6.09728 13.902 5.73722L12.738 6.13922C12.5078 6.21877 12.2632 6.24794 12.0207 6.22475C11.7783 6.20156 11.5436 6.12655 11.3327 6.00481C11.1217 5.88306 10.9394 5.71741 10.798 5.51908C10.6566 5.32074 10.5595 5.09435 10.5132 4.85522L10.278 3.64322C9.82983 3.58658 9.37637 3.58577 8.928 3.64082ZM8.3016 2.52722C9.16122 2.35585 10.0463 2.35666 10.9056 2.52962C11.0224 2.55292 11.1296 2.61043 11.2135 2.69484C11.2975 2.77925 11.3545 2.88673 11.3772 3.00362L11.6916 4.62722C11.7052 4.69752 11.7338 4.76407 11.7753 4.82239C11.8169 4.88071 11.8705 4.92943 11.9325 4.96526C11.9945 5.00109 12.0634 5.0232 12.1347 5.0301C12.206 5.03699 12.2779 5.02851 12.3456 5.00522L13.9056 4.46642C14.0181 4.42781 14.1395 4.42351 14.2545 4.45406C14.3694 4.48462 14.4727 4.54865 14.5512 4.63802C15.1248 5.28842 15.5724 6.05402 15.8556 6.89522C15.8935 7.0079 15.8971 7.12931 15.8659 7.24405C15.8347 7.35878 15.7702 7.46165 15.6804 7.53962L14.4336 8.62202C14.3794 8.66899 14.336 8.72705 14.3063 8.79227C14.2765 8.85748 14.2611 8.92833 14.2611 9.00002C14.2611 9.0717 14.2765 9.14255 14.3063 9.20777C14.336 9.27299 14.3794 9.33105 14.4336 9.37802L15.6816 10.4592C15.7712 10.5373 15.8355 10.6403 15.8665 10.755C15.8975 10.8697 15.8937 10.9911 15.8556 11.1036C15.5755 11.9358 15.132 12.7036 14.5512 13.362C14.4726 13.4512 14.3692 13.515 14.2543 13.5453C14.1393 13.5757 14.018 13.5712 13.9056 13.5324L12.3456 12.9936C12.2779 12.9703 12.206 12.9618 12.1347 12.9687C12.0634 12.9756 11.9945 12.9977 11.9325 13.0336C11.8705 13.0694 11.8169 13.1181 11.7753 13.1764C11.7338 13.2348 11.7052 13.3013 11.6916 13.3716L11.3772 14.9964C11.3546 15.1131 11.2978 15.2205 11.214 15.3049C11.1303 15.3893 11.0233 15.4469 10.9068 15.4704C10.0475 15.6436 9.1624 15.6444 8.3028 15.4728C8.18565 15.4497 8.07808 15.3921 7.99385 15.3074C7.90962 15.2227 7.85257 15.1149 7.83 14.9976L7.5156 13.3716C7.50198 13.3013 7.47343 13.2348 7.43187 13.1764C7.39032 13.1181 7.33674 13.0694 7.27474 13.0336C7.21275 12.9977 7.14378 12.9756 7.07251 12.9687C7.00124 12.9618 6.92931 12.9703 6.8616 12.9936L5.2932 13.5348C5.18081 13.5736 5.05945 13.5781 4.94451 13.5477C4.82956 13.5174 4.72622 13.4536 4.6476 13.3644C4.06747 12.7077 3.62403 11.942 3.3432 11.112C3.30527 10.9993 3.30167 10.8779 3.33287 10.7632C3.36406 10.6485 3.42864 10.5456 3.5184 10.4676L4.7724 9.37802C4.82635 9.33105 4.8696 9.27306 4.89924 9.20795C4.92888 9.14285 4.94421 9.07215 4.94421 9.00062C4.94421 8.92909 4.92888 8.85839 4.89924 8.79328C4.8696 8.72818 4.82635 8.67019 4.7724 8.62322L3.5184 7.53482C3.4284 7.45676 3.36368 7.35368 3.33248 7.2387C3.30128 7.12373 3.30501 7.00207 3.3432 6.88922C3.6264 6.04922 4.0752 5.28602 4.6476 4.63562C4.72622 4.54645 4.82956 4.48266 4.94451 4.45232C5.05945 4.42198 5.18081 4.42647 5.2932 4.46522L6.8616 5.00642C6.92931 5.02971 7.00124 5.03819 7.07251 5.0313C7.14378 5.0244 7.21275 5.00229 7.27474 4.96646C7.33674 4.93063 7.39032 4.88191 7.43187 4.82359C7.47343 4.76527 7.50198 4.69872 7.5156 4.62842L7.83 3.00362C7.85249 2.88651 7.90936 2.77877 7.99336 2.69413C8.07736 2.60949 8.18467 2.5518 8.3016 2.52842V2.52722ZM14.0268 14.7552C13.9161 14.7138 13.795 14.7091 13.6813 14.7417C13.5677 14.7744 13.4675 14.8426 13.3956 14.9364C13.2276 15.1692 13.0824 15.42 12.9636 15.684C12.9176 15.7931 12.9079 15.914 12.936 16.029C12.9641 16.144 13.0285 16.2469 13.1196 16.3224L13.8876 16.9884C13.9464 17.0397 13.9935 17.1029 14.0258 17.1739C14.0581 17.2449 14.0749 17.322 14.0749 17.4C14.0749 17.478 14.0581 17.5551 14.0258 17.6261C13.9935 17.6971 13.9464 17.7604 13.8876 17.8116L13.1196 18.4776C13.0285 18.5531 12.9641 18.656 12.936 18.771C12.9079 18.886 12.9176 19.007 12.9636 19.116C13.0824 19.38 13.2276 19.6308 13.3956 19.8636C13.4674 19.9576 13.5675 20.0261 13.6811 20.059C13.7947 20.0918 13.9159 20.0873 14.0268 20.046L14.9868 19.7148C15.0606 19.6895 15.1389 19.6804 15.2165 19.6879C15.2942 19.6954 15.3693 19.7195 15.4368 19.7585C15.5043 19.7975 15.5627 19.8505 15.6081 19.914C15.6534 19.9774 15.6846 20.0499 15.6996 20.1264L15.8916 21.1224C15.9396 21.3624 16.1244 21.5544 16.3668 21.5784C16.6537 21.6076 16.9427 21.6076 17.2296 21.5784C17.3471 21.5635 17.4567 21.5111 17.5421 21.4289C17.6275 21.3468 17.6841 21.2393 17.7036 21.1224L17.8956 20.1264C17.9104 20.0496 17.9415 19.9769 17.9869 19.9133C18.0322 19.8496 18.0908 19.7964 18.1585 19.7574C18.2262 19.7183 18.3016 19.6943 18.3794 19.687C18.4573 19.6796 18.5358 19.6891 18.6096 19.7148L19.5696 20.046C19.6805 20.0873 19.8017 20.0918 19.9153 20.059C20.0289 20.0261 20.129 19.9576 20.2008 19.8636C20.3688 19.6308 20.514 19.38 20.6328 19.116C20.6788 19.007 20.6885 18.886 20.6604 18.771C20.6323 18.656 20.5679 18.5531 20.4768 18.4776L19.7088 17.8116C19.65 17.7604 19.6029 17.6971 19.5706 17.6261C19.5383 17.5551 19.5215 17.478 19.5215 17.4C19.5215 17.322 19.5383 17.2449 19.5706 17.1739C19.6029 17.1029 19.65 17.0397 19.7088 16.9884L20.4768 16.3224C20.5679 16.2469 20.6323 16.144 20.6604 16.029C20.6885 15.914 20.6788 15.7931 20.6328 15.684C20.5144 15.4209 20.3696 15.1704 20.2008 14.9364C20.129 14.8424 20.0289 14.7739 19.9153 14.7411C19.8017 14.7082 19.6805 14.7128 19.5696 14.754L18.6096 15.0852C18.5358 15.1107 18.4574 15.12 18.3797 15.1126C18.3021 15.1052 18.2269 15.0811 18.1593 15.0421C18.0917 15.003 18.0333 14.9499 17.988 14.8864C17.9427 14.8228 17.9116 14.7502 17.8968 14.6736L17.7048 13.6776C17.6853 13.5606 17.6285 13.4529 17.5429 13.3708C17.4572 13.2886 17.3474 13.2363 17.2296 13.2216C16.9427 13.1924 16.6537 13.1924 16.3668 13.2216C16.2493 13.2365 16.1397 13.289 16.0543 13.3711C15.9689 13.4532 15.9123 13.5607 15.8928 13.6776L15.6996 14.6736C15.6846 14.7503 15.6534 14.8229 15.608 14.8864C15.5626 14.95 15.5041 15.0031 15.4364 15.0421C15.3687 15.0811 15.2934 15.1052 15.2157 15.1126C15.1379 15.12 15.0594 15.1107 14.9856 15.0852L14.0268 14.7552ZM16.8 18.6C16.4817 18.6 16.1765 18.4736 15.9515 18.2485C15.7264 18.0235 15.6 17.7183 15.6 17.4C15.6 17.0818 15.7264 16.7765 15.9515 16.5515C16.1765 16.3264 16.4817 16.2 16.8 16.2C17.1183 16.2 17.4235 16.3264 17.6485 16.5515C17.8736 16.7765 18 17.0818 18 17.4C18 17.7183 17.8736 18.0235 17.6485 18.2485C17.4235 18.4736 17.1183 18.6 16.8 18.6ZM8.4 9.00002C8.4 8.68176 8.52643 8.37653 8.75147 8.15149C8.97652 7.92645 9.28174 7.80002 9.6 7.80002C9.91826 7.80002 10.2235 7.92645 10.4485 8.15149C10.6736 8.37653 10.8 8.68176 10.8 9.00002C10.8 9.31828 10.6736 9.6235 10.4485 9.84855C10.2235 10.0736 9.91826 10.2 9.6 10.2C9.28174 10.2 8.97652 10.0736 8.75147 9.84855C8.52643 9.6235 8.4 9.31828 8.4 9.00002ZM9.6 6.60002C8.96348 6.60002 8.35303 6.85288 7.90294 7.30296C7.45286 7.75305 7.2 8.3635 7.2 9.00002C7.2 9.63654 7.45286 10.247 7.90294 10.6971C8.35303 11.1472 8.96348 11.4 9.6 11.4C10.2365 11.4 10.847 11.1472 11.2971 10.6971C11.7471 10.247 12 9.63654 12 9.00002C12 8.3635 11.7471 7.75305 11.2971 7.30296C10.847 6.85288 10.2365 6.60002 9.6 6.60002Z" fill="#2B2B2B"/>
</svg>
