<svg width="12" height="12" viewBox="0 0 12 12" fill="none" xmlns="http://www.w3.org/2000/svg">
<path d="M5.5 8.5C5.5 7.70435 5.81607 6.94129 6.37868 6.37868C6.9412 5.81617 7.7041 5.50011 8.4996 5.5C7.99847 5.4996 7.50525 5.62491 7.06508 5.86446C6.62491 6.104 6.25186 6.45014 5.98008 6.87117L5.80189 7.14721L5.77732 7.14312L5.62306 7.6465C5.54342 7.90638 5.5 8.1968 5.5 8.5ZM5.5 8.5V8.50035C5.49998 8.53174 5.50047 8.56311 5.50149 8.59447C5.5005 8.56304 5.5 8.53154 5.5 8.5ZM5.78597 9.78407L5.64995 9.5H5.62625L5.55764 9.08531C5.64563 9.52761 5.83245 9.94531 6.10486 10.3065C5.98182 10.1444 5.87473 9.96944 5.78597 9.78407ZM8.5 11.5C8.10233 11.5 7.72236 11.4222 7.37447 11.2809C7.7287 11.4242 8.11044 11.5 8.5 11.5Z" stroke="#FCFCFC"/>
</svg>
