<svg width="21" height="24" viewBox="0 0 21 24" fill="none" xmlns="http://www.w3.org/2000/svg">
<path d="M14.0762 12.2311C14.0762 12.2311 14.1983 12.1091 14.4424 11.8649C14.6866 11.6207 15.1538 11.4986 15.844 11.4986C16.5341 11.4986 17.1234 11.7428 17.6117 12.2311C18.1001 12.7195 18.3442 13.3087 18.3442 13.9989C18.3442 14.6891 18.1001 15.2783 17.6117 15.7667C17.1234 16.255 16.5341 16.4992 15.844 16.4992C15.1538 16.4992 14.5645 16.255 14.0762 15.7667C13.5879 15.2783 13.3437 14.6891 13.3437 13.9989C13.3437 13.3087 13.5879 12.7195 14.0762 12.2311ZM0.741413 12.2311C0.741413 12.2311 0.863496 12.1091 1.10766 11.8649C1.35183 11.6207 1.819 11.4986 2.50918 11.4986C3.19936 11.4986 3.78862 11.7428 4.27695 12.2311C4.76529 12.7195 5.00945 13.3087 5.00945 13.9989C5.00945 14.6891 4.76529 15.2783 4.27695 15.7667C3.78862 16.255 3.19936 16.4992 2.50918 16.4992C1.819 16.4992 1.22975 16.255 0.741413 15.7667C0.253078 15.2783 0.00891113 14.6891 0.00891113 13.9989C0.00891113 13.3087 0.253078 12.7195 0.741413 12.2311ZM3.09844 13.4097C3.09844 13.4097 3.05774 13.369 2.97636 13.2876C2.89497 13.2062 2.73924 13.1655 2.50918 13.1655C2.27912 13.1655 2.0827 13.2469 1.91993 13.4097C1.75715 13.5724 1.67576 13.7689 1.67576 13.9989C1.67576 14.229 1.75715 14.4254 1.91993 14.5882C2.0827 14.7509 2.27912 14.8323 2.50918 14.8323C2.73924 14.8323 2.93566 14.7509 3.09844 14.5882C3.26122 14.4254 3.34261 14.229 3.34261 13.9989C3.34261 13.7689 3.26122 13.5724 3.09844 13.4097ZM7.4088 12.2311C7.4088 12.2311 7.53089 12.1091 7.77505 11.8649C8.01922 11.6207 8.48639 11.4986 9.17657 11.4986C9.86675 11.4986 10.456 11.7428 10.9443 12.2311C11.4327 12.7195 11.6768 13.3087 11.6768 13.9989C11.6768 14.6891 11.4327 15.2783 10.9443 15.7667C10.456 16.255 9.86675 16.4992 9.17657 16.4992C8.48639 16.4992 7.89714 16.255 7.4088 15.7667C6.92047 15.2783 6.6763 14.6891 6.6763 13.9989C6.6763 13.3087 6.92047 12.7195 7.4088 12.2311ZM9.76583 13.4097C9.76583 13.4097 9.72513 13.369 9.64375 13.2876C9.56236 13.2062 9.40663 13.1655 9.17657 13.1655C8.94651 13.1655 8.75009 13.2469 8.58732 13.4097C8.42454 13.5724 8.34315 13.7689 8.34315 13.9989C8.34315 14.229 8.42454 14.4254 8.58732 14.5882C8.75009 14.7509 8.94651 14.8323 9.17657 14.8323C9.40663 14.8323 9.60305 14.7509 9.76583 14.5882C9.92861 14.4254 10.01 14.229 10.01 13.9989C10.01 13.7689 9.92861 13.5724 9.76583 13.4097ZM16.4332 13.4097C16.4332 13.4097 16.3925 13.369 16.3111 13.2876C16.2297 13.2062 16.074 13.1655 15.844 13.1655C15.6139 13.1655 15.4175 13.2469 15.2547 13.4097C15.0919 13.5724 15.0105 13.7689 15.0105 13.9989C15.0105 14.229 15.0919 14.4254 15.2547 14.5882C15.4175 14.7509 15.6139 14.8323 15.844 14.8323C16.074 14.8323 16.2704 14.7509 16.4332 14.5882C16.596 14.4254 16.6774 14.229 16.6774 13.9989C16.6774 13.7689 16.596 13.5724 16.4332 13.4097Z" fill="#424242"/>
</svg>
