<svg width="11" height="12" viewBox="0 0 11 12" fill="none" xmlns="http://www.w3.org/2000/svg">
<path d="M9 6.5V2.8745C9.00003 2.83503 8.99227 2.79595 8.97717 2.75948C8.96207 2.72302 8.93992 2.68989 8.912 2.662L7.338 1.088C7.28179 1.03172 7.20554 1.00007 7.126 1H1.3C1.22044 1 1.14413 1.03161 1.08787 1.08787C1.03161 1.14413 1 1.22044 1 1.3V10.7C1 10.7796 1.03161 10.8559 1.08787 10.9121C1.14413 10.9684 1.22044 11 1.3 11H6" stroke="#FCFCFC" stroke-linecap="round" stroke-linejoin="round"/>
<path d="M7 1V2.7C7 2.77956 7.03161 2.85587 7.08787 2.91213C7.14413 2.96839 7.22044 3 7.3 3H9M7 9.5H10M10 9.5L8.5 8M10 9.5L8.5 11" stroke="#FCFCFC" stroke-linecap="round" stroke-linejoin="round"/>
</svg>
