<svg width="15" height="15" viewBox="0 0 15 15" fill="none" xmlns="http://www.w3.org/2000/svg">
<path d="M6.65 2C5.43 2 4.48 3.38 4.11 3.82C4.0365 3.91022 3.9975 4.02366 4 4.14V8.54C3.99593 8.62519 4.0167 8.70972 4.0598 8.78332C4.10289 8.85692 4.16644 8.91641 4.24272 8.95455C4.31901 8.99269 4.40473 9.00784 4.48946 8.99816C4.5742 8.98847 4.65429 8.95437 4.72 8.9C5.18651 8.27365 5.8789 7.85391 6.65 7.73C8.06 7.73 8.6 9 10.07 9C11.0648 8.90241 12.0115 8.52443 12.8 7.91C12.8627 7.86398 12.9135 7.8037 12.9483 7.73415C12.9831 7.66459 13.0008 7.58776 13 7.51V2.45C13.0088 2.37258 12.9969 2.29421 12.9655 2.2229C12.9341 2.15159 12.8843 2.0899 12.8213 2.04413C12.7582 1.99836 12.6841 1.97016 12.6066 1.9624C12.5291 1.95465 12.4509 1.96762 12.38 2C11.6987 2.52122 10.9094 2.8834 10.07 3.06C8.6 3.08 8.12 2 6.65 2ZM2.5 3C2.23478 3 1.98043 2.89464 1.79289 2.70711C1.60536 2.51957 1.5 2.26522 1.5 2C1.5 1.73478 1.60536 1.48043 1.79289 1.29289C1.98043 1.10536 2.23478 1 2.5 1C2.76522 1 3.01957 1.10536 3.20711 1.29289C3.39464 1.48043 3.5 1.73478 3.5 2C3.5 2.26522 3.39464 2.51957 3.20711 2.70711C3.01957 2.89464 2.76522 3 2.5 3ZM3 4V13.48C3 13.6126 2.94732 13.7398 2.85355 13.8336C2.75979 13.9273 2.63261 13.98 2.5 13.98C2.36739 13.98 2.24021 13.9273 2.14645 13.8336C2.05268 13.7398 2 13.6126 2 13.48V4C2 3.86739 2.05268 3.74021 2.14645 3.64645C2.24021 3.55268 2.36739 3.5 2.5 3.5C2.63261 3.5 2.75979 3.55268 2.85355 3.64645C2.94732 3.74021 3 3.86739 3 4Z" fill="#424242"/>
</svg>
