<svg width="12" height="12" viewBox="0 0 12 12" fill="none" xmlns="http://www.w3.org/2000/svg">
<path d="M9.575 1.775C9.50833 1.683 9.425 1.61417 9.325 1.5685C9.225 1.52284 9.11667 1.5 9 1.5H3C2.88333 1.49967 2.775 1.5225 2.675 1.5685C2.575 1.6145 2.49167 1.68334 2.425 1.775H9.575ZM9.575 1.775L10.275 2.625L9.575 1.775ZM2.81097 2.09286L2.82052 2.08125L2.82937 2.06909C2.84164 2.05221 2.85344 2.04097 2.86606 2.03262L2.74403 2.17618L2.68998 2.23977L2.81097 2.09286ZM2.99857 2L2.99585 2C2.99675 2 2.99766 2 2.99857 2V2ZM9.17012 2.06839L9.1792 2.08092L9.18903 2.09286L9.30999 2.23973L9.25597 2.17618L9.13355 2.03216C9.14592 2.04017 9.15767 2.05121 9.17012 2.06839ZM2 9.50061L2 9.5024C2 9.50181 2 9.50121 2 9.50061Z" stroke="#FCFCFC"/>
</svg>
