<svg width="12" height="12" viewBox="0 0 12 12" fill="none" xmlns="http://www.w3.org/2000/svg">
<g clip-path="url(#clip0_1_859)">
<path d="M6 0C2.68631 0 0 2.68631 0 6C0 9.31388 2.68631 12 6 12C9.31388 12 12 9.31388 12 6C12 2.68631 9.31388 0 6 0ZM6 11.2618C3.10519 11.2618 0.75 8.89481 0.75 5.99998C0.75 3.10516 3.10519 0.749977 6 0.749977C8.89481 0.749977 11.25 3.10518 11.25 5.99998C11.25 8.89478 8.89481 11.2618 6 11.2618ZM8.39456 3.80456L4.87424 7.347L3.28893 5.76169C3.14249 5.61525 2.90511 5.61525 2.75849 5.76169C2.61205 5.90812 2.61205 6.1455 2.75849 6.29194L4.61455 8.14819C4.76099 8.29444 4.99836 8.29444 5.14499 8.14819C5.16186 8.13131 5.17631 8.11293 5.18944 8.09381L8.92519 4.33499C9.07144 4.18855 9.07144 3.95118 8.92519 3.80456C8.77856 3.65813 8.54119 3.65813 8.39456 3.80456Z" fill="#FCFCFC"/>
</g>
<defs>
<clipPath id="clip0_1_859">
<rect width="12" height="12" fill="white"/>
</clipPath>
</defs>
</svg>
