<svg width="12" height="12" viewBox="0 0 12 12" fill="none" xmlns="http://www.w3.org/2000/svg">
<path d="M4.3125 4.25H2.0625C1.92989 4.25 1.80271 4.19732 1.70895 4.10355C1.61518 4.00979 1.5625 3.88261 1.5625 3.75V1.5C1.5625 1.36739 1.61518 1.24021 1.70895 1.14645C1.80271 1.05268 1.92989 1 2.0625 1C2.19511 1 2.32229 1.05268 2.41605 1.14645C2.50982 1.24021 2.5625 1.36739 2.5625 1.5V3.25H4.3125C4.44511 3.25 4.57229 3.30268 4.66605 3.39645C4.75982 3.49021 4.8125 3.61739 4.8125 3.75C4.8125 3.88261 4.75982 4.00979 4.66605 4.10355C4.57229 4.19732 4.44511 4.25 4.3125 4.25Z" fill="#FCFCFC"/>
<path d="M10.5 6.49999C10.3674 6.49999 10.2402 6.44731 10.1465 6.35354C10.0527 6.25977 10 6.1326 10 5.99999C10.0004 5.11976 9.71023 4.26401 9.17456 3.56554C8.63889 2.86707 7.88765 2.36494 7.03743 2.13705C6.18721 1.90917 5.28555 1.96828 4.47235 2.30521C3.65916 2.64215 2.97991 3.23806 2.54001 4.00049C2.47358 4.11526 2.36427 4.19894 2.23613 4.23312C2.108 4.2673 1.97154 4.24918 1.85676 4.18274C1.74199 4.1163 1.65831 4.00699 1.62413 3.87886C1.58995 3.75073 1.60808 3.61426 1.67451 3.49949C2.22464 2.54661 3.07386 1.80191 4.09042 1.38093C5.10698 0.959954 6.23406 0.886225 7.2968 1.17118C8.35954 1.45614 9.29854 2.08386 9.96811 2.95695C10.6377 3.83005 11.0004 4.89971 11 5.99999C11 6.1326 10.9473 6.25977 10.8536 6.35354C10.7598 6.44731 10.6326 6.49999 10.5 6.49999ZM9.93751 11C9.8049 11 9.67773 10.9473 9.58396 10.8535C9.49019 10.7598 9.43751 10.6326 9.43751 10.5V8.74999H7.68751C7.5549 8.74999 7.42773 8.69731 7.33396 8.60354C7.24019 8.50978 7.18751 8.3826 7.18751 8.24999C7.18751 8.11738 7.24019 7.9902 7.33396 7.89644C7.42773 7.80267 7.5549 7.74999 7.68751 7.74999H9.93751C10.0701 7.74999 10.1973 7.80267 10.2911 7.89644C10.3848 7.9902 10.4375 8.11738 10.4375 8.24999V10.5C10.4375 10.6326 10.3848 10.7598 10.2911 10.8535C10.1973 10.9473 10.0701 11 9.93751 11Z" fill="#FCFCFC"/>
<path d="M6 11C4.67441 10.9984 3.40356 10.4711 2.46622 9.53378C1.52888 8.59644 1.00159 7.3256 1 6C1 5.86739 1.05268 5.74021 1.14645 5.64645C1.24021 5.55268 1.36739 5.5 1.5 5.5C1.63261 5.5 1.75979 5.55268 1.85355 5.64645C1.94732 5.74021 2 5.86739 2 6C1.99962 6.88023 2.28978 7.73598 2.82545 8.43445C3.36113 9.13292 4.11236 9.63505 4.96258 9.86294C5.8128 10.0908 6.71447 10.0317 7.52766 9.69478C8.34085 9.35784 9.0201 8.76193 9.46 7.9995C9.4929 7.94267 9.53666 7.89288 9.5888 7.85296C9.64094 7.81305 9.70043 7.78379 9.76388 7.76687C9.82733 7.74995 9.89348 7.74568 9.95858 7.75433C10.0237 7.76297 10.0864 7.78435 10.1433 7.81725C10.2001 7.85015 10.2499 7.89391 10.2898 7.94605C10.3297 7.99819 10.359 8.05768 10.3759 8.12113C10.3928 8.18458 10.3971 8.25073 10.3884 8.31583C10.3798 8.38092 10.3584 8.44367 10.3255 8.5005C9.88575 9.25874 9.25499 9.88851 8.49606 10.3271C7.73713 10.7656 6.87653 10.9976 6 11Z" fill="#FCFCFC"/>
</svg>
