<svg width="18" height="21" viewBox="0 0 18 21" fill="none" xmlns="http://www.w3.org/2000/svg">
<path d="M2.3625 1.61792e-08C1.73593 1.61792e-08 1.13502 0.237053 0.69196 0.65901C0.248906 1.08097 0 1.65326 0 2.25V18.75C0 19.3467 0.248906 19.919 0.69196 20.341C1.13502 20.7629 1.73593 21 2.3625 21H14.9625C15.5891 21 16.19 20.7629 16.633 20.341C17.0761 19.919 17.325 19.3467 17.325 18.75V6.621C17.3247 6.02457 17.0757 5.45267 16.6328 5.031L12.0432 0.6585C11.6002 0.236789 10.9994 -7.14759e-05 10.373 1.61792e-08H2.3625ZM1.575 2.25C1.575 2.05109 1.65797 1.86032 1.80565 1.71967C1.95334 1.57902 2.15364 1.5 2.3625 1.5H9.45V5.25C9.45 5.84674 9.69891 6.41903 10.142 6.84099C10.585 7.26295 11.1859 7.5 11.8125 7.5H15.75V18.75C15.75 18.9489 15.667 19.1397 15.5193 19.2803C15.3717 19.421 15.1714 19.5 14.9625 19.5H2.3625C2.15364 19.5 1.95334 19.421 1.80565 19.2803C1.65797 19.1397 1.575 18.9489 1.575 18.75V2.25ZM15.424 6H11.8125C11.6036 6 11.4033 5.92098 11.2557 5.78033C11.108 5.63968 11.025 5.44891 11.025 5.25V1.8105L15.424 6Z" fill="#424242"/>
</svg>
