<svg width="21" height="20" viewBox="0 0 21 20" fill="none" xmlns="http://www.w3.org/2000/svg">
<path d="M7.97853 1.1796C7.97853 1.1796 8.13805 1.12154 8.45709 1.00543C8.77614 0.889315 9.29377 0.831257 10.01 0.831257C10.7262 0.831257 11.4034 0.947372 12.0415 1.1796C12.6796 1.41183 13.246 1.73196 13.7409 2.13999C14.2357 2.54802 14.6806 3.0331 15.0757 3.59523C15.4707 4.15736 15.7995 4.76506 16.0621 5.41834C16.3247 6.07163 16.5298 6.76506 16.6774 7.49865C17.1158 9.69941 17.5813 11.439 18.074 12.7173C18.5667 13.9957 19.2124 15.0342 20.0111 15.8329H12.367C12.4625 16.1064 12.5103 16.3842 12.5103 16.6663C12.5103 17.3565 12.2661 17.9457 11.7778 18.4341C11.2894 18.9224 10.7002 19.1666 10.01 19.1666C9.31982 19.1666 8.73056 18.9224 8.24223 18.4341C7.75389 17.9457 7.50973 17.3565 7.50973 16.6663C7.50973 16.3842 7.55747 16.1064 7.65297 15.8329H0.00891113C0.807609 15.0342 1.4533 13.9957 1.94597 12.7173C2.43865 11.439 2.90419 9.69941 3.34261 7.49865C3.49019 6.76506 3.69529 6.07163 3.95791 5.41834C4.22052 4.76506 4.54933 4.15736 4.94434 3.59523C5.33935 3.0331 5.78428 2.54802 6.27912 2.13999C6.77397 1.73196 7.34044 1.41183 7.97853 1.1796ZM10.5993 16.0771C10.5993 16.0771 10.5586 16.0364 10.4772 15.955C10.3958 15.8736 10.2401 15.8329 10.01 15.8329C9.77994 15.8329 9.58352 15.9143 9.42074 16.0771C9.25796 16.2398 9.17657 16.4362 9.17657 16.6663C9.17657 16.8964 9.25796 17.0928 9.42074 17.2556C9.58352 17.4183 9.77994 17.4997 10.01 17.4997C10.2401 17.4997 10.4365 17.4183 10.5993 17.2556C10.762 17.0928 10.8434 16.8964 10.8434 16.6663C10.8434 16.4362 10.762 16.2398 10.5993 16.0771ZM11.4327 2.7325C11.4327 2.7325 11.3214 2.69344 11.099 2.6153C10.8765 2.53717 10.5135 2.4981 10.01 2.4981C9.50647 2.4981 9.03224 2.57624 8.58732 2.7325C8.14239 2.88877 7.76149 3.08845 7.44461 3.33153C7.12774 3.57461 6.83365 3.86653 6.56236 4.20727C6.29106 4.54802 6.07077 4.87901 5.90148 5.20022C5.73219 5.52144 5.57918 5.86436 5.44244 6.22898C5.30571 6.5936 5.20479 6.8942 5.13968 7.13077C5.07456 7.36734 5.02031 7.59848 4.9769 7.8242C4.42128 10.624 3.80924 12.7379 3.14076 14.166H16.8792C16.2108 12.7379 15.5987 10.624 15.0431 7.8242C14.9997 7.59848 14.9454 7.36734 14.8803 7.13077C14.8152 6.8942 14.7143 6.5936 14.5775 6.22898C14.4408 5.86436 14.2878 5.52144 14.1185 5.20022C13.9492 4.87901 13.7289 4.54802 13.4576 4.20727C13.1863 3.86653 12.8923 3.57461 12.5754 3.33153C12.2585 3.08845 11.8776 2.88877 11.4327 2.7325Z" fill="#424242"/>
</svg>
